<svg width="184" height="64" viewBox="0 0 184 64" fill="none" xmlns="http://www.w3.org/2000/svg">
<g clip-path="url(#clip0)">
<g filter="url(#filter0_d)">
<rect width="184" height="64" rx="4" fill="url(#paint0_linear)"/>
</g>
<path d="M81.104 15.248L79.952 16.08C80.816 16.976 81.52 17.808 82.064 18.56L83.248 17.744C82.736 17.008 82.032 16.176 81.104 15.248ZM86.848 21.968L85.632 22.736C86.656 23.968 87.456 25.088 88.064 26.096L89.408 25.168C88.8 24.256 87.952 23.184 86.848 21.968ZM84.4 14.88V17.136C84.384 17.68 84.352 18.208 84.32 18.72H79.312V20.208H84.16C83.936 21.696 83.6 22.992 83.136 24.096C82.368 25.776 80.912 27.152 78.768 28.24L79.616 29.584C81.792 28.56 83.344 27.12 84.288 25.248C84.944 23.888 85.408 22.208 85.664 20.208H90.8C90.8 22.144 90.736 23.936 90.64 25.584C90.528 27.216 90.112 28.064 89.376 28.128C88.656 28.128 87.856 28.08 86.992 28L87.392 29.472C87.952 29.52 88.64 29.552 89.472 29.552C90.56 29.552 91.312 28.912 91.744 27.632C92.144 26.352 92.352 23.392 92.352 18.72H85.808C85.84 18.208 85.872 17.68 85.888 17.136V14.88H84.4ZM103.176 22.192C102.312 22.48 101.4 22.752 100.44 23.008V20.496H104.024C104.152 21.664 104.328 22.688 104.552 23.552C104.696 24.128 104.856 24.672 105.048 25.2C103.928 26.224 102.616 27.008 101.112 27.552L101.96 28.864C103.336 28.336 104.568 27.6 105.672 26.672C105.912 27.184 106.184 27.616 106.488 28C107.24 28.944 107.96 29.424 108.648 29.424C109.416 29.424 110.008 28.272 110.408 26L109.064 25.296C108.856 26.96 108.648 27.792 108.44 27.792C108.184 27.792 107.816 27.424 107.336 26.704C107.144 26.416 106.968 26.048 106.776 25.616C107.768 24.56 108.616 23.296 109.336 21.824L108.024 21.136C107.512 22.192 106.904 23.136 106.216 23.968C106.136 23.712 106.056 23.44 105.992 23.136C105.8 22.432 105.656 21.552 105.56 20.496H110.264V19.04H105.432C105.336 17.856 105.288 16.48 105.288 14.912H103.752C103.752 16.416 103.8 17.792 103.896 19.04H100.44V17.008C101.192 16.8 101.912 16.576 102.6 16.336L102.072 14.912C100.344 15.616 98.36 16.08 96.12 16.32L96.44 17.76C97.288 17.632 98.104 17.504 98.904 17.344V19.04H95.736V20.496H98.904V23.36C97.896 23.568 96.84 23.76 95.736 23.936L95.944 25.456C96.968 25.296 97.944 25.104 98.904 24.896V27.504C98.904 27.888 98.696 28.08 98.296 28.08C97.784 28.08 97.256 28.048 96.696 27.984L97.032 29.44H98.824C99.896 29.44 100.44 28.912 100.44 27.888V24.544C101.4 24.288 102.312 24.032 103.176 23.744V22.192ZM107.048 15.056L106.024 16.032C107.24 16.848 108.168 17.6 108.84 18.304L109.944 17.216C109.144 16.496 108.184 15.776 107.048 15.056ZM113.648 20.016H117.552C116.464 23.376 114.816 26.032 112.608 27.984L113.392 29.392C115.136 27.984 116.592 26.096 117.744 23.728C118.256 24.672 119.04 25.568 120.08 26.4C118.944 27.088 117.568 27.728 115.968 28.304L116.768 29.744C118.608 29.024 120.16 28.224 121.424 27.344C122.736 28.176 124.368 28.96 126.304 29.664L127.088 28.224C125.376 27.648 123.904 27.024 122.688 26.352C123.872 25.296 124.656 24.112 125.072 22.8V21.52H118.672C118.832 21.04 119.008 20.544 119.168 20.016H126.88V18.56H119.552C119.824 17.456 120.064 16.272 120.256 15.008L118.704 14.816C118.512 16.128 118.272 17.376 117.968 18.56H115.6L116.432 15.6L114.912 15.344L113.648 20.016ZM118.848 22.896H123.536C123.088 23.824 122.352 24.704 121.344 25.52C120.208 24.72 119.376 23.84 118.848 22.896ZM122.944 14.832L121.92 15.84C123.104 16.752 124 17.616 124.64 18.448L125.728 17.36C124.976 16.512 124.048 15.664 122.944 14.832ZM132.424 21.808H135.976V23.808H132.424V21.808ZM135.976 25.232V27.072C135.976 28.624 136.696 29.408 138.152 29.408H142.248C143.032 29.408 143.576 29.264 143.88 28.992C144.168 28.688 144.36 27.856 144.456 26.48L143 25.984C142.952 26.976 142.856 27.568 142.728 27.728C142.568 27.888 142.312 27.984 141.992 27.984H138.504C137.832 27.984 137.496 27.6 137.496 26.848V25.232H142.664V16.976H137.496V14.912H135.976V16.976H130.904V26.496H132.424V25.232H135.976ZM137.496 23.808V21.808H141.16V23.808H137.496ZM141.16 20.416H137.496V18.416H141.16V20.416ZM135.976 18.416V20.416H132.424V18.416H135.976Z" fill="white"/>
<path opacity="0.6" d="M82.272 43.656V44.76H84.9V47.712H81.828V48.828H89.364V47.712H86.064V44.76H88.836V43.656H86.064V41.544H84.9V43.656H82.272ZM80.22 44.652V49.272H81.348V43.38C81.984 42.588 82.524 41.724 82.98 40.812H89.364V39.696H83.484C83.676 39.204 83.844 38.7 84 38.184L82.824 38.052C82.656 38.616 82.464 39.168 82.224 39.696H78.804V40.812H81.684C80.868 42.276 79.764 43.596 78.372 44.748L79.092 45.684C79.488 45.348 79.86 45.012 80.22 44.652ZM102.112 41.016H100.216C100.432 40.68 100.636 40.308 100.816 39.9L99.748 39.516C100.48 39.444 101.176 39.36 101.824 39.264L101.26 38.268C98.788 38.58 95.74 38.736 92.128 38.736L92.488 39.792C95.296 39.792 97.708 39.696 99.724 39.516C99.52 40.032 99.28 40.536 99.004 41.016H97.624C97.504 40.572 97.372 40.164 97.228 39.804L96.124 39.972C96.268 40.296 96.388 40.644 96.508 41.016H94.816C94.696 40.608 94.576 40.236 94.456 39.9L93.34 40.068C93.46 40.356 93.58 40.68 93.688 41.016H91.912V43.116H92.908V44.076H94.612C94.024 45.828 93.052 47.184 91.696 48.144L92.236 49.128C93.328 48.408 94.216 47.412 94.9 46.152C95.452 46.668 96.052 47.124 96.7 47.532C95.908 47.868 94.984 48.12 93.952 48.264L94.468 49.284C95.644 49.068 96.76 48.684 97.804 48.132C98.932 48.684 100.192 49.044 101.584 49.236L102.088 48.204C100.924 48.084 99.844 47.844 98.86 47.484C99.592 46.98 100.216 46.38 100.732 45.696V44.844H95.512C95.608 44.592 95.692 44.34 95.776 44.076H101.128V43.116H102.112V41.016ZM93.064 43.02V42.048H100.96V43.02H96.064C96.112 42.816 96.148 42.6 96.196 42.384L95.068 42.24C95.02 42.504 94.96 42.756 94.912 43.02H93.064ZM95.836 45.816H99.328C98.872 46.236 98.332 46.632 97.708 47.004C97.036 46.668 96.412 46.272 95.836 45.816ZM105.236 42.012H108.164C107.348 44.532 106.112 46.524 104.456 47.988L105.044 49.044C106.352 47.988 107.444 46.572 108.308 44.796C108.692 45.504 109.28 46.176 110.06 46.8C109.208 47.316 108.176 47.796 106.976 48.228L107.576 49.308C108.956 48.768 110.12 48.168 111.068 47.508C112.052 48.132 113.276 48.72 114.728 49.248L115.316 48.168C114.032 47.736 112.928 47.268 112.016 46.764C112.904 45.972 113.492 45.084 113.804 44.1V43.14H109.004C109.124 42.78 109.256 42.408 109.376 42.012H115.16V40.92H109.664C109.868 40.092 110.048 39.204 110.192 38.256L109.028 38.112C108.884 39.096 108.704 40.032 108.476 40.92H106.7L107.324 38.7L106.184 38.508L105.236 42.012ZM109.136 44.172H112.652C112.316 44.868 111.764 45.528 111.008 46.14C110.156 45.54 109.532 44.88 109.136 44.172ZM112.208 38.124L111.44 38.88C112.328 39.564 113 40.212 113.48 40.836L114.296 40.02C113.732 39.384 113.036 38.748 112.208 38.124ZM119.568 43.356H122.232V44.856H119.568V43.356ZM122.232 45.924V47.304C122.232 48.468 122.772 49.056 123.864 49.056H126.936C127.524 49.056 127.932 48.948 128.16 48.744C128.376 48.516 128.52 47.892 128.592 46.86L127.5 46.488C127.464 47.232 127.392 47.676 127.296 47.796C127.176 47.916 126.984 47.988 126.744 47.988H124.128C123.624 47.988 123.372 47.7 123.372 47.136V45.924H127.248V39.732H123.372V38.184H122.232V39.732H118.428V46.872H119.568V45.924H122.232ZM123.372 44.856V43.356H126.12V44.856H123.372ZM126.12 42.312H123.372V40.812H126.12V42.312ZM122.232 40.812V42.312H119.568V40.812H122.232ZM132.016 39.876H133.108V40.512H130.876V41.424H131.932C131.872 41.832 131.776 42.144 131.644 42.348C131.44 42.636 131.104 42.876 130.636 43.092L131.284 43.92C131.86 43.608 132.268 43.248 132.508 42.84C132.676 42.516 132.796 42.048 132.856 41.424H133.552V42.36C133.552 42.492 133.456 42.612 133.288 42.708L133.684 43.548C134.392 43.344 135.088 43.092 135.784 42.792L135.616 41.976C135.244 42.12 134.872 42.264 134.512 42.384V41.424H135.652V40.512H134.14V39.876H135.484V39H134.14V38.172H133.108V39H132.46C132.52 38.832 132.58 38.652 132.628 38.46L131.752 38.328C131.596 38.928 131.296 39.396 130.852 39.756L131.452 40.5C131.656 40.32 131.848 40.116 132.016 39.876ZM136.948 39.876H138.172V40.512H136.432C136.612 40.344 136.78 40.128 136.948 39.876ZM136.372 40.512H135.976V41.424H137.128C137.068 41.724 136.972 41.952 136.852 42.12C136.66 42.36 136.348 42.576 135.892 42.744L136.528 43.536C137.08 43.272 137.476 42.96 137.728 42.6C137.884 42.324 137.992 41.928 138.064 41.424H138.58V42.456C138.58 42.708 138.64 42.924 138.784 43.092C138.928 43.26 139.144 43.356 139.42 43.356H140.26C140.62 43.344 140.884 43.284 141.028 43.176C141.16 43.068 141.268 42.696 141.352 42.048L140.5 41.76C140.464 42.168 140.404 42.384 140.332 42.432C140.26 42.468 140.176 42.492 140.08 42.492H139.732C139.612 42.492 139.552 42.396 139.552 42.228V41.424H141.112V40.512H139.192V39.876H140.8V39H139.192V38.172H138.172V39H137.356C137.416 38.82 137.476 38.628 137.524 38.424L136.648 38.292C136.504 38.928 136.216 39.432 135.796 39.816L136.372 40.512ZM139.948 43.704H132.136V47.292H133.216V44.712H138.856V47.184H139.948V43.704ZM136.744 47.052L136.18 47.904C137.74 48.24 139.264 48.696 140.752 49.284L141.364 48.324C139.972 47.82 138.424 47.388 136.744 47.052ZM135.7 45.216C135.532 46.044 135.088 46.692 134.368 47.172C133.648 47.628 132.472 47.964 130.828 48.204L131.272 49.26C133.192 48.924 134.524 48.468 135.268 47.892C136.12 47.244 136.624 46.392 136.792 45.336L135.7 45.216ZM148.436 38.82H144.26V47.064C143.984 47.112 143.708 47.172 143.42 47.232L143.732 48.324C145.796 47.88 147.608 47.4 149.192 46.884V45.804C148.952 45.876 148.7 45.96 148.436 46.044V38.82ZM145.376 46.824V44.916H147.332V46.356C146.708 46.512 146.048 46.668 145.376 46.824ZM145.376 43.896V42.336H147.332V43.896H145.376ZM145.376 41.304V39.864H147.332V41.304H145.376ZM150.404 38.22V40.524H149.036V41.628H150.404V41.748C150.38 44.88 149.636 47.148 148.172 48.552L149.024 49.308C150.656 47.712 151.496 45.192 151.532 41.748V41.628H153.032C153.008 44.82 152.972 46.692 152.9 47.256C152.804 47.832 152.492 48.132 151.94 48.132C151.628 48.132 151.268 48.108 150.848 48.072L151.124 49.08C151.592 49.104 151.928 49.128 152.12 49.128C153.224 49.128 153.836 48.66 153.968 47.748C154.088 46.836 154.148 44.424 154.148 40.524H151.532V38.22H150.404ZM162.132 43.644C161.484 43.86 160.8 44.064 160.08 44.256V42.372H162.768C162.864 43.248 162.996 44.016 163.164 44.664C163.272 45.096 163.392 45.504 163.536 45.9C162.696 46.668 161.712 47.256 160.584 47.664L161.22 48.648C162.252 48.252 163.176 47.7 164.004 47.004C164.184 47.388 164.388 47.712 164.616 48C165.18 48.708 165.72 49.068 166.236 49.068C166.812 49.068 167.256 48.204 167.556 46.5L166.548 45.972C166.392 47.22 166.236 47.844 166.08 47.844C165.888 47.844 165.612 47.568 165.252 47.028C165.108 46.812 164.976 46.536 164.832 46.212C165.576 45.42 166.212 44.472 166.752 43.368L165.768 42.852C165.384 43.644 164.928 44.352 164.412 44.976C164.352 44.784 164.292 44.58 164.244 44.352C164.1 43.824 163.992 43.164 163.92 42.372H167.448V41.28H163.824C163.752 40.392 163.716 39.36 163.716 38.184H162.564C162.564 39.312 162.6 40.344 162.672 41.28H160.08V39.756C160.644 39.6 161.184 39.432 161.7 39.252L161.304 38.184C160.008 38.712 158.52 39.06 156.84 39.24L157.08 40.32C157.716 40.224 158.328 40.128 158.928 40.008V41.28H156.552V42.372H158.928V44.52C158.172 44.676 157.38 44.82 156.552 44.952L156.708 46.092C157.476 45.972 158.208 45.828 158.928 45.672V47.628C158.928 47.916 158.772 48.06 158.472 48.06C158.088 48.06 157.692 48.036 157.272 47.988L157.524 49.08H158.868C159.672 49.08 160.08 48.684 160.08 47.916V45.408C160.8 45.216 161.484 45.024 162.132 44.808V43.644ZM165.036 38.292L164.268 39.024C165.18 39.636 165.876 40.2 166.38 40.728L167.208 39.912C166.608 39.372 165.888 38.832 165.036 38.292Z" fill="white"/>
<path fill-rule="evenodd" clip-rule="evenodd" d="M33.6213 36.3259C32.9967 36.3259 32.4917 36.8255 32.4917 37.4435C32.4917 38.0629 32.9967 38.5625 33.6213 38.5625C34.2459 38.5625 34.7509 38.0629 34.7509 37.4435C34.7509 36.8255 34.2459 36.3259 33.6213 36.3259Z" fill="white"/>
<path fill-rule="evenodd" clip-rule="evenodd" d="M44.1262 39.5483C43.5016 39.5483 42.9966 40.048 42.9966 40.6659C42.9966 41.2853 43.5016 41.7849 44.1262 41.7849C44.7508 41.7849 45.2558 41.2853 45.2558 40.6659C45.2558 40.048 44.7508 39.5483 44.1262 39.5483Z" fill="white"/>
<path fill-rule="evenodd" clip-rule="evenodd" d="M60.4553 42.3232C60.0852 42.5063 59.5538 42.5159 59.0627 42.348C58.7316 42.2324 58.3741 42.1236 58.018 42.0149C57.3572 41.8153 56.2526 41.4823 56.0426 41.2304C55.6976 40.7748 55.0423 40.684 54.5819 41.0281C54.1214 41.3708 54.0296 42.0163 54.3774 42.4719C54.4928 42.626 54.6486 42.7526 54.8058 42.8751C53.2116 45.058 46.2127 49.4018 36.3147 47.2615C31.8547 46.2967 28.8527 44.535 27.6312 42.1691C26.7506 40.4596 26.951 38.6993 27.3725 37.7427C28.5842 35.2529 37.3303 29.5191 42.9143 26.2723C43.4096 25.9819 43.5751 25.3501 43.283 24.8588C42.9908 24.3688 42.3245 24.172 41.8557 24.4927C41.4049 24.7542 39.8733 25.6543 37.9187 26.8793C37.2579 26.4402 36.1158 25.8979 34.2851 25.7204C31.3818 25.4355 24.6723 24.1679 22.5049 23.2608C20.9524 22.6112 17.4286 20.8908 18.209 18.9543C18.3899 18.5028 19.2399 17.772 21.0817 17.0756C22.5007 16.5402 23.9127 16.2442 24.9797 16.1259C24.8364 16.1947 24.6973 16.2608 24.5665 16.3241C23.3117 16.9269 21.9428 17.6013 21.0233 18.3982C20.9565 18.3556 20.887 18.3129 20.8397 18.2661C20.4432 17.8559 19.7894 17.8257 19.3664 18.2331C18.9491 18.6267 18.9338 19.2805 19.3331 19.692C19.7045 20.0774 20.254 20.3678 20.9537 20.5894C20.9802 20.5976 21.0038 20.61 21.0303 20.6155C23.462 21.356 27.7856 21.2638 33.8816 21.0243C36.5095 20.9224 38.9913 20.8261 41.0613 20.866C47.9238 21.0009 53.0808 23.7013 56.8285 29.1227C59.1309 32.4534 58.3004 35.7347 56.983 38.5864C56.8258 38.4667 56.6574 38.3112 56.5308 38.157C56.1705 37.7125 55.5042 37.6505 55.066 37.9932C54.6152 38.3497 54.5401 38.998 54.899 39.4439C55.1105 39.7082 56.1984 40.9455 57.5464 40.8395C57.5714 40.8409 57.5937 40.8381 57.6187 40.8368C57.6591 40.8313 57.7008 40.8381 57.7439 40.8313C58.6649 40.6647 59.2436 40.7088 59.7847 41.0446C60.5012 41.4919 60.8545 41.7589 60.7836 41.9819C60.7418 42.1223 60.6347 42.2227 60.4553 42.3232ZM32.0022 30.8252C31.7949 30.9753 31.5918 31.1239 31.3873 31.2725C31.1675 31.0386 30.9922 30.8156 30.9115 30.6532C31.1536 30.5816 31.557 30.667 32.0022 30.8252ZM60.7891 39.2333C60.273 38.9099 59.7319 38.7695 59.206 38.7117C60.4413 35.7319 61.2273 31.8313 58.5508 27.9569C54.4553 22.029 48.5832 18.9488 41.1017 18.8015C38.9704 18.7602 36.458 18.8579 33.7996 18.9625C30.7126 19.0836 26.6046 19.2419 23.8125 19.0134C24.369 18.7148 24.9616 18.4285 25.475 18.1821C27.4393 17.2366 28.9862 16.5002 28.4743 15.1941C28.2058 14.4316 27.4059 14.0311 26.0912 14.0022C23.3242 13.9402 17.3451 15.523 16.2698 18.1918C15.6646 19.6947 15.5645 22.5961 21.6924 25.1602C24.2132 26.2172 31.3331 27.5055 34.0806 27.7753C34.8568 27.8496 35.4508 28.0051 35.9016 28.1703C35.2714 28.5804 34.6245 29.0112 33.9748 29.4516C32.8466 28.8158 31.002 28.0657 29.6247 28.9947C29.0919 29.3512 28.7887 29.8769 28.7747 30.4756C28.7553 31.2202 29.2116 31.9483 29.7249 32.5347C27.6966 34.1353 26.0565 35.6865 25.475 36.8825C24.8267 38.3525 24.5624 40.7583 25.7727 43.105C27.3085 46.0834 30.7043 48.1603 35.8682 49.2779C42.6166 50.7354 48.4455 49.4224 52.3018 47.4143C54.4483 46.2967 55.9716 44.963 56.7117 43.7725C56.9412 43.8441 57.1708 43.917 57.4073 43.99C57.737 44.0891 58.0667 44.1882 58.3755 44.2969C59.3966 44.6465 60.5262 44.5997 61.3957 44.1661C61.411 44.1593 61.4277 44.1496 61.4444 44.1414C62.0996 43.8 62.5712 43.2522 62.7785 42.5916C63.3349 40.8106 61.7462 39.8265 60.7891 39.2333Z" fill="white"/>
</g>
<defs>
<filter id="filter0_d" x="-10" y="-6" width="204" height="84" filterUnits="userSpaceOnUse" color-interpolation-filters="sRGB">
<feFlood flood-opacity="0" result="BackgroundImageFix"/>
<feColorMatrix in="SourceAlpha" type="matrix" values="0 0 0 0 0 0 0 0 0 0 0 0 0 0 0 0 0 0 127 0"/>
<feOffset dy="4"/>
<feGaussianBlur stdDeviation="5"/>
<feColorMatrix type="matrix" values="0 0 0 0 0.580392 0 0 0 0 0.423529 0 0 0 0 0.901961 0 0 0 0.2 0"/>
<feBlend mode="normal" in2="BackgroundImageFix" result="effect1_dropShadow"/>
<feBlend mode="normal" in="SourceGraphic" in2="effect1_dropShadow" result="shape"/>
</filter>
<linearGradient id="paint0_linear" x1="0" y1="64" x2="184" y2="64" gradientUnits="userSpaceOnUse">
<stop stop-color="#AA84F5"/>
<stop offset="1" stop-color="#885FD9"/>
</linearGradient>
<clipPath id="clip0">
<rect width="184" height="64" fill="white"/>
</clipPath>
</defs>
</svg>
