<svg width="545" height="153" viewBox="0 0 545 153" fill="none" xmlns="http://www.w3.org/2000/svg">
<path d="M0 24.48C0 10.9601 10.9601 0 24.48 0H520.2C533.72 0 544.68 10.9601 544.68 24.48V128.52C544.68 142.04 533.72 153 520.2 153H24.48C10.9601 153 0 142.04 0 128.52V24.48Z" fill="#FFDD00"/>
<path d="M109.522 50.3178L109.455 50.2783L109.299 50.2308C109.362 50.2836 109.44 50.3142 109.522 50.3178Z" fill="#0D0C22"/>
<path d="M110.507 57.3134L110.432 57.3344L110.507 57.3134Z" fill="#0D0C22"/>
<path d="M109.549 50.3062C109.54 50.3051 109.532 50.3031 109.524 50.3003C109.523 50.3058 109.523 50.3113 109.524 50.3168C109.533 50.3156 109.541 50.3119 109.549 50.3062Z" fill="#0D0C22"/>
<path d="M109.523 50.3205H109.536V50.3127L109.523 50.3205Z" fill="#0D0C22"/>
<path d="M110.447 57.3006L110.56 57.2361L110.602 57.2123L110.64 57.1715C110.569 57.2025 110.503 57.2462 110.447 57.3006Z" fill="#0D0C22"/>
<path d="M109.715 50.4713L109.604 50.3659L109.529 50.3251C109.57 50.3963 109.636 50.4488 109.715 50.4713Z" fill="#0D0C22"/>
<path d="M81.8801 118.353C81.7916 118.391 81.7142 118.451 81.6548 118.527L81.7246 118.482C81.772 118.439 81.8392 118.387 81.8801 118.353Z" fill="#0D0C22"/>
<path d="M98.0456 115.173C98.0456 115.073 97.9968 115.091 98.0087 115.447C98.0087 115.418 98.0206 115.389 98.0258 115.361C98.0324 115.298 98.0377 115.236 98.0456 115.173Z" fill="#0D0C22"/>
<path d="M96.3761 118.353C96.2877 118.391 96.2103 118.451 96.1509 118.527L96.2207 118.482C96.2681 118.439 96.3353 118.387 96.3761 118.353Z" fill="#0D0C22"/>
<path d="M70.4886 119.11C70.4215 119.052 70.3393 119.013 70.2515 118.999C70.3226 119.034 70.3937 119.068 70.4412 119.094L70.4886 119.11Z" fill="#0D0C22"/>
<path d="M67.9304 116.657C67.92 116.553 67.8881 116.453 67.8369 116.362C67.8732 116.456 67.9035 116.553 67.9278 116.652L67.9304 116.657Z" fill="#0D0C22"/>
<path d="M85.1368 72.7737C81.6195 74.2794 77.628 75.9866 72.4549 75.9866C70.2908 75.9823 68.1373 75.6854 66.0527 75.104L69.6306 111.838C69.7572 113.373 70.4567 114.805 71.59 115.848C72.7233 116.892 74.2076 117.471 75.7482 117.47C75.7482 117.47 80.8212 117.734 82.514 117.734C84.3358 117.734 89.7988 117.47 89.7988 117.47C91.3391 117.47 92.8231 116.891 93.9562 115.848C95.0892 114.804 95.7885 113.373 95.9151 111.838L99.7472 71.2456C98.0347 70.6607 96.3064 70.2721 94.358 70.2721C90.9883 70.2708 88.2733 71.4313 85.1368 72.7737Z" fill="white"/>
<path d="M54.9844 57.1021L55.045 57.1587L55.0845 57.1824C55.0541 57.1522 55.0205 57.1252 54.9844 57.1021Z" fill="#0D0C22"/>
<path d="M116.299 53.7119L115.761 50.9943C115.277 48.5559 114.18 46.2519 111.677 45.3706C110.875 45.0887 109.964 44.9675 109.349 44.384C108.734 43.8004 108.552 42.8941 108.41 42.0536C108.147 40.511 107.899 38.9671 107.629 37.4272C107.396 36.1033 107.211 34.616 106.604 33.4015C105.814 31.7706 104.174 30.8169 102.543 30.1859C101.707 29.8739 100.854 29.61 99.9884 29.3955C95.9139 28.3205 91.63 27.9253 87.4382 27.7001C82.407 27.4225 77.3623 27.5061 72.343 27.9504C68.6071 28.2902 64.6723 28.7013 61.1221 29.9935C59.8245 30.4665 58.4875 31.0342 57.5008 32.0367C56.2902 33.2684 55.895 35.1733 56.7789 36.7092C57.4073 37.8 58.4717 38.5706 59.6006 39.0804C61.0711 39.7373 62.6068 40.2371 64.1822 40.5716C68.5689 41.5412 73.1124 41.9219 77.5939 42.0839C82.561 42.2844 87.5362 42.1219 92.4796 41.5978C93.7021 41.4635 94.9224 41.3023 96.1405 41.1144C97.575 40.8944 98.4958 39.0185 98.073 37.7117C97.5671 36.1494 96.2077 35.5434 94.6703 35.7792C94.4438 35.8148 94.2185 35.8477 93.9919 35.8807L93.8286 35.9044C93.3078 35.9702 92.787 36.0317 92.2662 36.0888C91.1904 36.2047 90.112 36.2996 89.0309 36.3733C86.6097 36.5419 84.1818 36.6197 81.7553 36.6236C79.371 36.6236 76.9853 36.5564 74.6062 36.3997C73.5207 36.3285 72.4379 36.2381 71.3577 36.1283C70.8663 36.0769 70.3763 36.0229 69.8862 35.9623L69.4199 35.903L69.3185 35.8886L68.835 35.8187C67.847 35.6699 66.859 35.4986 65.8816 35.2918C65.783 35.2699 65.6947 35.2151 65.6315 35.1363C65.5683 35.0575 65.5338 34.9594 65.5338 34.8584C65.5338 34.7574 65.5683 34.6594 65.6315 34.5806C65.6947 34.5018 65.783 34.4469 65.8816 34.425H65.9C66.7471 34.2445 67.6007 34.0904 68.4569 33.956C68.7424 33.9113 69.0287 33.8673 69.3158 33.8243H69.3237C69.8599 33.7887 70.3987 33.6926 70.9322 33.6293C75.574 33.1465 80.2434 32.9819 84.9077 33.1367C87.1721 33.2025 89.4353 33.3356 91.6892 33.5648C92.174 33.6149 92.6562 33.6676 93.1383 33.7268C93.3227 33.7492 93.5085 33.7756 93.6942 33.798L94.0683 33.852C95.1591 34.0144 96.2441 34.2116 97.3234 34.4435C98.9227 34.7912 100.976 34.9045 101.688 36.6566C101.914 37.2125 102.017 37.8303 102.142 38.4139L102.302 39.1581C102.306 39.1715 102.309 39.1852 102.311 39.199C102.688 40.9554 103.065 42.7118 103.442 44.4683C103.47 44.598 103.471 44.7321 103.444 44.8621C103.418 44.9921 103.365 45.1153 103.289 45.2239C103.213 45.3326 103.115 45.4244 103.002 45.4936C102.889 45.5628 102.762 45.6079 102.631 45.6262H102.62L102.39 45.6578L102.162 45.6881C101.44 45.7821 100.717 45.8699 99.9936 45.9516C98.5683 46.114 97.1408 46.2546 95.711 46.3731C92.87 46.6094 90.0233 46.7644 87.1708 46.8381C85.7174 46.8768 84.2644 46.8948 82.8118 46.8921C77.0301 46.8876 71.2534 46.5516 65.5101 45.8857C64.8883 45.8119 64.2666 45.7329 63.6448 45.6525C64.1269 45.7145 63.2944 45.6051 63.1258 45.5814C62.7306 45.5261 62.3354 45.4686 61.9402 45.4088C60.6136 45.2099 59.295 44.9649 57.9711 44.7502C56.3705 44.4867 54.8398 44.6185 53.3921 45.4088C52.2037 46.0591 51.2419 47.0564 50.6349 48.2674C50.0105 49.5584 49.8248 50.964 49.5455 52.3511C49.2662 53.7383 48.8315 55.2308 48.9962 56.6548C49.3505 59.7281 51.4991 62.2258 54.5895 62.7843C57.4968 63.3112 60.42 63.7381 63.351 64.1016C74.8648 65.5118 86.4968 65.6805 98.0466 64.6049C98.9872 64.517 99.9265 64.4213 100.864 64.3177C101.157 64.2855 101.454 64.3192 101.732 64.4165C102.01 64.5137 102.263 64.6719 102.472 64.8795C102.681 65.0872 102.842 65.339 102.941 65.6165C103.04 65.894 103.076 66.1902 103.046 66.4834L102.753 69.3261C102.164 75.0705 101.575 80.8145 100.986 86.558C100.371 92.5896 99.7521 98.6208 99.1295 104.651C98.9538 106.35 98.7782 108.048 98.6025 109.746C98.4339 111.417 98.4102 113.142 98.0927 114.794C97.5922 117.391 95.8335 118.987 93.2674 119.57C90.9164 120.105 88.5148 120.386 86.1038 120.408C83.431 120.422 80.7594 120.304 78.0866 120.318C75.2333 120.334 71.7384 120.071 69.5358 117.947C67.6007 116.082 67.3333 113.161 67.0698 110.636C66.7185 107.293 66.3703 103.95 66.0252 100.607L64.0887 82.0212L62.8359 69.9953C62.8149 69.7964 62.7938 69.6001 62.774 69.3999C62.6239 67.9654 61.6082 66.5611 60.0077 66.6335C58.6376 66.6941 57.0806 67.8586 57.2413 69.3999L58.17 78.3155L60.0906 96.7581C60.6378 101.997 61.1836 107.236 61.7281 112.476C61.8335 113.48 61.9323 114.487 62.0429 115.49C62.6449 120.976 66.834 123.932 72.0216 124.764C75.0515 125.252 78.1551 125.352 81.2297 125.402C85.1711 125.465 89.1521 125.617 93.029 124.903C98.7738 123.849 103.084 120.013 103.699 114.062C103.875 112.345 104.051 110.626 104.226 108.908C104.81 103.224 105.393 97.5397 105.976 91.855L107.88 73.2807L108.754 64.7682C108.797 64.3461 108.976 63.9492 109.262 63.6363C109.549 63.3234 109.929 63.111 110.345 63.0307C111.988 62.7105 113.558 62.1639 114.727 60.9137C116.587 58.9232 116.957 56.3281 116.299 53.7119ZM54.5052 55.5483C54.5302 55.5364 54.4841 55.7511 54.4644 55.8513C54.4604 55.6998 54.4683 55.5654 54.5052 55.5483ZM54.6646 56.7813C54.6778 56.7721 54.7173 56.8248 54.7581 56.888C54.6962 56.83 54.6567 56.7866 54.6633 56.7813H54.6646ZM54.8214 56.9881C54.878 57.0843 54.9083 57.1449 54.8214 56.9881V56.9881ZM55.1362 57.2437H55.1441C55.1441 57.2529 55.1586 57.2621 55.1639 57.2713C55.1551 57.2612 55.1454 57.2519 55.1349 57.2437H55.1362ZM110.269 56.8616C109.679 57.4228 108.789 57.6837 107.911 57.8141C98.0572 59.2763 88.06 60.0166 78.0984 59.6899C70.9691 59.4462 63.9148 58.6545 56.8566 57.6573C56.165 57.5598 55.4155 57.4334 54.9399 56.9236C54.0441 55.9619 54.4841 54.0254 54.7173 52.8636C54.9307 51.7992 55.3391 50.3804 56.605 50.2289C58.581 49.9971 60.8758 50.8309 62.8307 51.1273C65.1843 51.4865 67.5467 51.7741 69.9179 51.9902C80.0375 52.9123 90.3271 52.7687 100.402 51.4198C102.238 51.173 104.068 50.8863 105.891 50.5596C107.516 50.2684 109.316 49.7218 110.298 51.404C110.971 52.55 111.06 54.0834 110.956 55.3783C110.924 55.9425 110.678 56.4732 110.267 56.8616H110.269Z" fill="#0D0C22"/>
<path fill-rule="evenodd" clip-rule="evenodd" d="M170.036 84.2397C169.461 85.3378 168.67 86.2942 167.663 87.1057C166.656 87.9178 165.482 88.579 164.139 89.0881C162.797 89.5984 161.446 89.9408 160.088 90.1153C158.729 90.2905 157.41 90.2753 156.133 90.0674C154.854 89.8608 153.766 89.439 152.872 88.8014L153.88 78.3397C154.806 78.0216 155.972 77.6949 157.379 77.3604C158.785 77.0264 160.231 76.787 161.718 76.644C163.205 76.5004 164.61 76.5173 165.937 76.6919C167.263 76.867 168.31 77.2888 169.077 77.9579C169.493 78.3397 169.845 78.7537 170.132 79.1997C170.42 79.6458 170.595 80.1076 170.66 80.5852C170.819 81.9227 170.612 83.1409 170.036 84.2397ZM155.413 61.9545C156.084 61.5406 156.892 61.1739 157.834 60.8551C158.777 60.5376 159.744 60.3139 160.735 60.1867C161.725 60.06 162.692 60.043 163.636 60.1388C164.578 60.2345 165.41 60.497 166.129 60.9267C166.848 61.357 167.383 61.9782 167.735 62.7897C168.086 63.6024 168.182 64.6296 168.022 65.8714C167.895 66.8587 167.502 67.695 166.848 68.3793C166.193 69.0647 165.393 69.6374 164.451 70.0993C163.508 70.5617 162.509 70.9277 161.455 71.1974C160.399 71.4689 159.384 71.6683 158.41 71.795C157.435 71.9229 156.588 72.0029 155.869 72.0338C155.15 72.0659 154.678 72.0816 154.454 72.0816L155.413 61.9545ZM175.214 77.4798C174.703 76.3658 174.016 75.3864 173.153 74.5416C172.29 73.698 171.266 73.0853 170.084 72.7029C170.595 72.2889 171.099 71.6362 171.595 70.7441C172.09 69.8532 172.513 68.8811 172.865 67.8302C173.216 66.7787 173.457 65.7205 173.584 64.6533C173.711 63.5866 173.663 62.6709 173.441 61.906C172.896 59.9958 172.042 58.4988 170.875 57.4158C169.708 56.3334 168.35 55.5849 166.8 55.1704C165.249 54.7577 163.54 54.6692 161.67 54.908C159.8 55.1467 157.89 55.6164 155.941 56.317C155.941 56.1582 155.957 55.991 155.989 55.8158C156.02 55.6413 156.036 55.4576 156.036 55.2661C156.036 54.7886 155.797 54.3752 155.317 54.0243C154.838 53.674 154.287 53.4674 153.664 53.4031C153.04 53.3401 152.433 53.4746 151.841 53.8092C151.25 54.1437 150.842 54.7577 150.619 55.6479C150.363 58.5146 150.107 61.4927 149.852 64.5812C149.596 67.6708 149.324 70.792 149.037 73.9453C148.749 77.0979 148.461 80.227 148.174 83.3318C147.886 86.4372 147.598 89.4226 147.311 92.2886C147.407 93.1486 147.646 93.8177 148.03 94.2953C148.413 94.7734 148.861 95.0601 149.372 95.1553C149.883 95.251 150.419 95.1625 150.978 94.8922C151.537 94.6225 152.025 94.1516 152.441 93.4832C153.719 94.1838 155.158 94.6377 156.756 94.845C158.354 95.0516 159.975 95.0516 161.623 94.845C163.268 94.6377 164.89 94.248 166.488 93.6741C168.086 93.1013 169.541 92.3844 170.851 91.525C172.162 90.665 173.264 89.685 174.16 88.5869C175.054 87.4875 175.646 86.3014 175.933 85.0281C176.221 83.7221 176.301 82.4167 176.173 81.1106C176.045 79.8052 175.725 78.5955 175.214 77.4798Z" fill="#0D0C23"/>
<path fill-rule="evenodd" clip-rule="evenodd" d="M221.989 102.702C221.814 103.753 221.565 104.86 221.246 106.023C220.926 107.184 220.551 108.244 220.12 109.2C219.688 110.155 219.209 110.926 218.682 111.516C218.154 112.105 217.586 112.352 216.979 112.257C216.5 112.192 216.196 111.89 216.069 111.349C215.94 110.807 215.94 110.138 216.069 109.343C216.196 108.546 216.443 107.646 216.811 106.643C217.179 105.64 217.627 104.644 218.154 103.658C218.682 102.67 219.281 101.723 219.952 100.815C220.623 99.9082 221.326 99.1512 222.061 98.5464C222.221 98.7373 222.293 99.2149 222.277 99.9797C222.26 100.744 222.165 101.652 221.989 102.702ZM238.243 81.9697C237.811 81.4921 237.284 81.2218 236.66 81.1576C236.037 81.0939 235.405 81.4442 234.767 82.2085C234.351 82.9727 233.823 83.7054 233.184 84.406C232.545 85.1072 231.882 85.7436 231.195 86.3169C230.507 86.8896 229.852 87.3841 229.229 87.7975C228.606 88.212 228.118 88.5144 227.767 88.7053C227.639 87.6866 227.566 86.5878 227.551 85.409C227.534 84.2308 227.559 83.0369 227.623 81.8266C227.718 80.1067 227.918 78.3715 228.222 76.6194C228.526 74.868 228.965 73.148 229.541 71.4595C229.541 70.5686 229.332 69.8438 228.917 69.2862C228.501 68.7293 227.998 68.3784 227.407 68.2353C226.815 68.0923 226.209 68.1717 225.585 68.4741C224.962 68.7771 224.427 69.3268 223.979 70.122C223.596 71.1735 223.156 72.3516 222.661 73.6571C222.165 74.9631 221.606 76.2928 220.983 77.6461C220.359 79.0006 219.664 80.3139 218.897 81.5873C218.13 82.8618 217.291 83.9927 216.38 84.9793C215.469 85.9666 214.478 86.7393 213.408 87.2963C212.336 87.8538 211.179 88.1005 209.932 88.0369C209.356 87.8775 208.94 87.4478 208.685 86.7466C208.429 86.0466 208.277 85.1702 208.23 84.1193C208.182 83.0684 208.23 81.9139 208.373 80.6557C208.517 79.3982 208.709 78.1479 208.949 76.9061C209.188 75.6637 209.452 74.4855 209.739 73.371C210.027 72.2565 210.298 71.3165 210.554 70.5523C210.938 69.6292 210.938 68.8559 210.554 68.2353C210.171 67.6141 209.644 67.2008 208.973 66.9929C208.302 66.7863 207.598 66.7947 206.863 67.0172C206.128 67.2402 205.6 67.7335 205.281 68.4977C204.737 69.8044 204.241 71.2686 203.794 72.8928C203.347 74.5171 202.987 76.1976 202.716 77.9328C202.444 79.6691 202.291 81.3891 202.26 83.0927C202.258 83.2036 202.263 83.309 202.263 83.4193C201.566 85.2708 200.902 86.6702 200.271 87.6066C199.456 88.8174 198.536 89.3429 197.514 89.1829C197.065 88.992 196.771 88.5465 196.627 87.8453C196.482 87.1453 196.435 86.2854 196.482 85.2654C196.531 84.2472 196.651 83.0927 196.842 81.8024C197.035 80.5127 197.273 79.1752 197.561 77.7897C197.849 76.4037 198.153 75.0116 198.472 73.6098C198.792 72.2086 199.079 70.8868 199.336 69.6444C199.304 68.5299 198.976 67.6784 198.352 67.0887C197.73 66.5002 196.858 66.2693 195.74 66.396C194.973 66.7147 194.405 67.1293 194.038 67.6384C193.67 68.1474 193.374 68.8008 193.151 69.5965C193.022 70.0111 192.831 70.8389 192.575 72.0813C192.319 73.3225 191.992 74.7486 191.592 76.3564C191.193 77.9655 190.721 79.6449 190.178 81.3963C189.635 83.1478 189.027 84.7333 188.357 86.1496C187.685 87.5666 186.95 88.7053 186.151 89.5653C185.352 90.4247 184.489 90.7756 183.562 90.6162C183.05 90.5205 182.723 89.995 182.579 89.0399C182.435 88.0841 182.412 86.9066 182.507 85.5048C182.603 84.1036 182.795 82.5666 183.082 80.8951C183.37 79.223 183.665 77.6388 183.969 76.1413C184.273 74.6449 184.553 73.3225 184.809 72.1765C185.064 71.0298 185.24 70.2656 185.336 69.8838C185.336 68.9602 185.127 68.2202 184.713 67.662C184.297 67.1056 183.794 66.7547 183.202 66.6111C182.61 66.4681 182.003 66.5475 181.381 66.8499C180.757 67.1529 180.222 67.7026 179.774 68.4977C179.614 69.3577 179.406 70.3535 179.151 71.4838C178.895 72.614 178.648 73.7765 178.408 74.971C178.168 76.1655 177.944 77.3358 177.737 78.4824C177.529 79.6291 177.377 80.6321 177.281 81.4921C177.217 82.1606 177.145 82.9812 177.066 83.9521C176.985 84.9242 176.945 85.9508 176.945 87.0332C176.945 88.1169 177.025 89.1914 177.186 90.258C177.345 91.3253 177.633 92.3047 178.048 93.1956C178.463 94.0877 179.047 94.8198 179.799 95.3931C180.549 95.9664 181.5 96.2846 182.651 96.3489C183.833 96.4119 184.864 96.3252 185.744 96.0858C186.622 95.847 187.421 95.4725 188.141 94.9628C188.86 94.4543 189.515 93.8489 190.107 93.1477C190.697 92.4477 191.281 91.6835 191.856 90.855C192.4 92.0659 193.103 93.0047 193.966 93.6737C194.829 94.3422 195.74 94.741 196.699 94.8677C197.657 94.9943 198.633 94.8604 199.624 94.4616C200.614 94.064 201.509 93.3871 202.308 92.4313C202.835 91.8453 203.331 91.1792 203.797 90.4429C203.995 90.7877 204.205 91.1204 204.442 91.4277C205.225 92.4477 206.288 93.1477 207.631 93.5301C209.069 93.9125 210.474 93.9768 211.849 93.7216C213.223 93.4671 214.534 93.0047 215.78 92.3362C217.027 91.6671 218.185 90.8635 219.257 89.9235C220.327 88.9841 221.262 88.0053 222.061 86.9854C222.029 87.7181 222.013 88.4114 222.013 89.0635C222.013 89.7168 221.997 90.4247 221.966 91.1895C220.367 92.3047 218.857 93.6422 217.435 95.2022C216.012 96.7622 214.765 98.4264 213.695 100.194C212.624 101.961 211.785 103.753 211.179 105.568C210.571 107.384 210.275 109.08 210.291 110.657C210.307 112.233 210.682 113.61 211.418 114.788C212.152 115.967 213.351 116.81 215.013 117.32C216.74 117.862 218.257 117.877 219.569 117.368C220.879 116.858 222.021 116.014 222.996 114.836C223.971 113.658 224.77 112.233 225.394 110.561C226.017 108.889 226.512 107.145 226.88 105.33C227.247 103.515 227.479 101.73 227.575 99.9797C227.671 98.2276 227.671 96.6664 227.575 95.2974C230.324 94.1513 232.577 92.7022 234.335 90.9501C236.093 89.1999 237.547 87.352 238.698 85.409C239.049 84.9314 239.169 84.3581 239.058 83.6896C238.945 83.0206 238.674 82.4472 238.243 81.9697Z" fill="#0D0C23"/>
<path fill-rule="evenodd" clip-rule="evenodd" d="M298.724 78.9135C298.82 78.1814 298.964 77.4087 299.155 76.5966C299.347 75.7845 299.587 74.996 299.875 74.2318C300.162 73.4676 300.498 72.807 300.882 72.2494C301.265 71.6924 301.673 71.2943 302.104 71.0549C302.536 70.8167 302.974 70.8403 303.423 71.1264C303.902 71.4137 304.197 72.0185 304.31 72.9415C304.421 73.8663 304.31 74.853 303.974 75.9039C303.638 76.9554 303.039 77.942 302.176 78.8657C301.313 79.7899 300.146 80.3941 298.676 80.6808C298.612 80.236 298.628 79.6463 298.724 78.9135ZM315.336 80.8717C314.809 80.7135 314.306 80.6972 313.826 80.8244C313.347 80.9517 313.043 81.2862 312.916 81.8281C312.659 82.8468 312.251 83.8898 311.692 84.9565C311.133 86.0238 310.446 87.0346 309.632 87.9904C308.817 88.9455 307.897 89.7898 306.875 90.5219C305.851 91.2546 304.781 91.78 303.662 92.0982C302.543 92.4491 301.616 92.4885 300.882 92.2176C300.146 91.9479 299.563 91.4855 299.132 90.8328C298.7 90.1801 298.388 89.3916 298.197 88.468C298.005 87.5443 297.893 86.5892 297.861 85.6013C299.683 85.7292 301.305 85.4032 302.728 84.622C304.149 83.8426 305.356 82.8068 306.347 81.5171C307.337 80.2275 308.089 78.7784 308.6 77.1699C309.111 75.5621 309.399 73.9615 309.463 72.3688C309.495 70.8718 309.272 69.6064 308.792 68.5713C308.313 67.5367 307.665 66.7313 306.85 66.1586C306.036 65.5853 305.1 65.2507 304.046 65.1556C302.992 65.0598 301.92 65.2034 300.833 65.5853C299.522 66.0313 298.412 66.7555 297.501 67.7592C296.59 68.7622 295.831 69.9252 295.224 71.2464C294.617 72.5682 294.137 73.993 293.786 75.5215C293.434 77.0505 293.178 78.5554 293.019 80.0366C292.875 81.3656 292.798 82.6365 292.771 83.8632C292.702 84.0189 292.636 84.1686 292.563 84.3353C292.067 85.4668 291.491 86.5734 290.837 87.6558C290.182 88.7389 289.454 89.6467 288.656 90.3788C287.857 91.1116 287.026 91.3661 286.163 91.1431C285.651 91.0164 285.372 90.4261 285.324 89.3758C285.276 88.3243 285.331 87.0189 285.491 85.4583C285.651 83.8983 285.835 82.2093 286.043 80.3941C286.25 78.579 286.354 76.8439 286.354 75.1875C286.354 73.7542 286.082 72.3773 285.539 71.0549C284.995 69.7343 284.252 68.6349 283.31 67.7592C282.367 66.8828 281.272 66.3016 280.026 66.0156C278.779 65.7283 277.437 65.9198 275.999 66.5883C274.56 67.2574 273.417 68.1967 272.571 69.407C271.723 70.6179 270.948 71.8912 270.245 73.2288C269.989 72.2094 269.614 71.2628 269.118 70.3864C268.623 69.5107 268.016 68.7464 267.297 68.0931C266.577 67.441 265.769 66.9313 264.876 66.5646C263.981 66.1992 263.037 66.0156 262.046 66.0156C261.088 66.0156 260.201 66.1992 259.386 66.5646C258.571 66.9313 257.828 67.4004 257.156 67.9737C256.485 68.5476 255.878 69.1919 255.334 69.9088C254.791 70.6252 254.311 71.3343 253.896 72.0343C253.831 71.2064 253.76 70.4822 253.681 69.8603C253.6 69.2398 253.456 68.7143 253.249 68.2846C253.041 67.8543 252.746 67.5283 252.362 67.3052C251.978 67.0828 251.435 66.9707 250.732 66.9707C250.38 66.9707 250.028 67.0422 249.677 67.1852C249.325 67.3289 249.013 67.5283 248.742 67.7828C248.47 68.0386 248.263 68.3482 248.119 68.7143C247.975 69.0804 247.936 69.5028 247.999 69.9803C248.031 70.3312 248.119 70.7525 248.263 71.2464C248.406 71.7403 248.542 72.3858 248.67 73.1809C248.798 73.9773 248.902 74.9409 248.982 76.0712C249.062 77.2021 249.085 78.5875 249.054 80.2275C249.021 81.8681 248.902 83.7862 248.694 85.9837C248.486 88.1813 248.158 90.7291 247.711 93.6267C247.647 94.2957 247.903 94.8376 248.479 95.2515C249.054 95.6648 249.709 95.9036 250.444 95.9678C251.179 96.0315 251.875 95.9036 252.53 95.586C253.185 95.2666 253.561 94.7097 253.656 93.9139C253.752 92.417 253.936 90.8249 254.208 89.1364C254.479 87.4492 254.815 85.7771 255.215 84.1207C255.614 82.465 256.069 80.8887 256.581 79.3911C257.092 77.8942 257.66 76.573 258.283 75.4263C258.907 74.2797 259.554 73.3645 260.225 72.6797C260.896 71.9949 261.599 71.6524 262.335 71.6524C263.229 71.6524 263.924 72.0579 264.42 72.87C264.915 73.6827 265.266 74.7263 265.475 75.999C265.682 77.2736 265.778 78.6675 265.763 80.1796C265.746 81.6923 265.682 83.1492 265.571 84.5504C265.459 85.9522 265.331 87.2019 265.187 88.3007C265.043 89.3995 264.939 90.1564 264.876 90.5697C264.876 91.3025 265.155 91.8831 265.714 92.3134C266.273 92.743 266.896 92.9982 267.584 93.0776C268.272 93.1576 268.918 93.0297 269.526 92.6952C270.133 92.3606 270.485 91.7964 270.581 90.9994C270.9 88.7067 271.34 86.4062 271.899 84.0971C272.458 81.7881 273.098 79.7184 273.817 77.8869C274.536 76.0554 275.335 74.5585 276.214 73.3961C277.093 72.2343 278.028 71.6524 279.019 71.6524C279.53 71.6524 279.922 72.0033 280.193 72.7033C280.465 73.4039 280.601 74.3591 280.601 75.5694C280.601 76.4615 280.529 77.3772 280.386 78.3166C280.241 79.256 280.074 80.2275 279.882 81.2305C279.69 82.2341 279.522 83.2608 279.378 84.3117C279.235 85.3632 279.163 86.4613 279.163 87.608C279.163 88.4043 279.243 89.3279 279.403 90.3788C279.562 91.4291 279.865 92.4255 280.313 93.3642C280.761 94.3042 281.376 95.1 282.16 95.7527C282.943 96.4054 283.941 96.7321 285.155 96.7321C286.978 96.7321 288.591 96.3418 289.998 95.5618C291.404 94.7818 292.611 93.763 293.618 92.5049C293.67 92.4388 293.718 92.3685 293.769 92.3031C293.846 92.4891 293.914 92.6861 294.001 92.863C294.688 94.2642 295.623 95.3466 296.806 96.1115C297.988 96.8757 299.379 97.2975 300.978 97.3775C302.575 97.4563 304.317 97.1618 306.204 96.4933C307.609 95.9836 308.832 95.3466 309.871 94.5824C310.909 93.8182 311.844 92.8867 312.675 91.7879C313.507 90.6891 314.265 89.4231 314.953 87.9904C315.641 86.5565 316.335 84.9171 317.038 83.0692C317.166 82.5608 317.046 82.1068 316.679 81.7081C316.311 81.3105 315.864 81.0317 315.336 80.8717Z" fill="#0D0C23"/>
<path fill-rule="evenodd" clip-rule="evenodd" d="M341.393 75.5432C341.233 76.4832 341.018 77.5189 340.746 78.6486C340.474 79.7795 340.131 80.9498 339.715 82.1601C339.3 83.3703 338.788 84.4612 338.181 85.4321C337.574 86.4042 336.878 87.1757 336.096 87.7491C335.312 88.3224 334.41 88.5612 333.387 88.4654C332.875 88.4024 332.483 88.0521 332.212 87.4145C331.94 86.7782 331.797 85.9655 331.78 84.9782C331.764 83.9915 331.852 82.9085 332.044 81.7298C332.236 80.5522 332.531 79.3971 332.932 78.2662C333.331 77.1365 333.818 76.0929 334.393 75.1371C334.969 74.182 335.632 73.4414 336.383 72.916C337.134 72.3905 337.958 72.1445 338.852 72.1754C339.747 72.2075 340.706 72.6529 341.729 73.5129C341.664 73.9275 341.553 74.6044 341.393 75.5432ZM358.437 79.1977C357.941 78.9431 357.43 78.888 356.903 79.031C356.376 79.174 356 79.6601 355.777 80.488C355.649 81.3801 355.361 82.4304 354.914 83.6406C354.466 84.8509 353.914 85.9982 353.26 87.08C352.604 88.163 351.853 89.063 351.006 89.7793C350.159 90.4963 349.256 90.823 348.298 90.7581C347.498 90.6951 346.938 90.289 346.62 89.5406C346.299 88.7921 346.132 87.8533 346.116 86.7218C346.099 85.5921 346.212 84.3182 346.451 82.9007C346.691 81.4837 346.979 80.0746 347.314 78.6722C347.65 77.2716 347.994 75.9256 348.346 74.6359C348.697 73.3463 348.984 72.2554 349.209 71.3639C349.464 70.5675 349.384 69.8912 348.969 69.333C348.553 68.7766 348.034 68.3778 347.411 68.1391C346.787 67.9003 346.155 67.8366 345.516 67.9481C344.877 68.0597 344.462 68.4021 344.27 68.9748C342.384 67.3506 340.57 66.4748 338.829 66.3476C337.086 66.2203 335.48 66.6027 334.01 67.4942C332.539 68.3857 331.237 69.6754 330.103 71.3639C328.968 73.0523 328.049 74.8911 327.345 76.8814C326.642 78.8716 326.203 80.9025 326.027 82.9722C325.851 85.0424 325.987 86.9297 326.435 88.6333C326.883 90.3369 327.673 91.7308 328.808 92.8126C329.942 93.8956 331.485 94.4375 333.435 94.4375C334.298 94.4375 335.129 94.2623 335.928 93.912C336.726 93.5611 337.462 93.1472 338.133 92.6696C338.804 92.192 339.395 91.6902 339.908 91.1648C340.418 90.6393 340.818 90.2018 341.106 89.8509C341.329 90.9975 341.697 91.9696 342.209 92.7654C342.719 93.5611 343.303 94.215 343.958 94.7235C344.613 95.2326 345.301 95.6071 346.02 95.8465C346.739 96.0853 347.435 96.2047 348.105 96.2047C349.608 96.2047 351.013 95.695 352.325 94.6756C353.635 93.6575 354.81 92.4066 355.849 90.926C356.887 89.4448 357.743 87.8848 358.413 86.2442C359.085 84.6043 359.532 83.1473 359.756 81.8728C359.98 81.3952 359.939 80.894 359.636 80.3686C359.332 79.8431 358.933 79.4534 358.437 79.1977Z" fill="#0D0C23"/>
<path fill-rule="evenodd" clip-rule="evenodd" d="M444.738 105.571C444.467 106.653 444.043 107.57 443.467 108.318C442.892 109.066 442.173 109.456 441.31 109.489C440.767 109.52 440.351 109.233 440.063 108.629C439.776 108.023 439.576 107.243 439.464 106.288C439.352 105.332 439.304 104.265 439.32 103.087C439.336 101.909 439.384 100.746 439.464 99.5996C439.543 98.4536 439.64 97.3857 439.752 96.3991C439.863 95.4112 439.951 94.6482 440.015 94.1064C441.102 94.2336 442.006 94.7027 442.724 95.5154C443.443 96.3275 443.995 97.2906 444.378 98.4057C444.762 99.5202 444.985 100.723 445.05 102.012C445.113 103.302 445.009 104.488 444.738 105.571ZM427.382 105.571C427.111 106.653 426.687 107.57 426.112 108.318C425.537 109.066 424.817 109.456 423.954 109.489C423.411 109.52 422.996 109.233 422.708 108.629C422.42 108.023 422.22 107.243 422.109 106.288C421.996 105.332 421.948 104.265 421.965 103.087C421.98 101.909 422.028 100.746 422.109 99.5996C422.188 98.4536 422.284 97.3857 422.396 96.3991C422.508 95.4112 422.595 94.6482 422.66 94.1064C423.746 94.2336 424.65 94.7027 425.368 95.5154C426.088 96.3275 426.639 97.2906 427.023 98.4057C427.407 99.5202 427.63 100.723 427.694 102.012C427.757 103.302 427.653 104.488 427.382 105.571ZM409.572 78.4375C409.539 79.2011 409.467 79.8781 409.355 80.4672C409.243 81.0575 409.092 81.4308 408.9 81.5902C408.548 81.3987 408.116 80.906 407.605 80.109C407.094 79.3133 406.695 78.4127 406.406 77.4096C406.119 76.4066 406.03 75.42 406.143 74.4479C406.254 73.477 406.758 72.7212 407.653 72.1788C408.004 71.9879 408.308 72.0594 408.564 72.394C408.82 72.7285 409.027 73.2139 409.188 73.8509C409.347 74.4885 409.458 75.2206 409.523 76.0485C409.587 76.8769 409.603 77.6727 409.572 78.4375ZM405.328 87.9677C404.832 88.4925 404.28 88.9464 403.674 89.3289C403.066 89.7113 402.443 89.9979 401.804 90.1889C401.164 90.3804 400.589 90.4276 400.078 90.3319C398.64 90.0458 397.537 89.424 396.77 88.4689C396.003 87.5137 395.515 86.3913 395.308 85.1017C395.1 83.8114 395.123 82.4338 395.38 80.969C395.635 79.5042 396.066 78.143 396.674 76.8848C397.281 75.6266 398.017 74.5436 398.879 73.6364C399.742 72.7285 400.685 72.1637 401.708 71.94C401.324 73.5642 401.197 75.2448 401.324 76.98C401.452 78.7157 401.868 80.3478 402.571 81.8762C403.018 82.8011 403.554 83.6441 404.177 84.4083C404.801 85.1732 405.56 85.8259 406.455 86.3671C406.199 86.9089 405.823 87.4422 405.328 87.9677ZM458.378 78.9151C458.474 78.183 458.617 77.4096 458.81 76.5975C459.001 75.786 459.241 74.9976 459.528 74.2333C459.816 73.4685 460.152 72.8079 460.536 72.2509C460.92 71.694 461.326 71.2952 461.758 71.0564C462.19 70.8176 462.629 70.8413 463.076 71.1279C463.556 71.4152 463.851 72.02 463.963 72.943C464.075 73.8673 463.963 74.8539 463.628 75.9054C463.292 76.9563 462.693 77.9436 461.83 78.8666C460.968 79.7914 459.8 80.3957 458.33 80.6823C458.266 80.2369 458.282 79.6478 458.378 78.9151ZM477.7 78.9151C477.796 78.183 477.939 77.4096 478.131 76.5975C478.323 75.786 478.563 74.9976 478.851 74.2333C479.138 73.4685 479.473 72.8079 479.857 72.2509C480.241 71.694 480.649 71.2952 481.08 71.0564C481.512 70.8176 481.951 70.8413 482.398 71.1279C482.878 71.4152 483.173 72.02 483.285 72.943C483.397 73.8673 483.285 74.8539 482.95 75.9054C482.614 76.9563 482.015 77.9436 481.152 78.8666C480.289 79.7914 479.122 80.3957 477.652 80.6823C477.588 80.2369 477.604 79.6478 477.7 78.9151ZM495.655 81.7096C495.287 81.312 494.84 81.0332 494.313 80.8732C493.785 80.7144 493.282 80.6987 492.802 80.826C492.323 80.9532 492.018 81.2878 491.891 81.829C491.635 82.8484 491.228 83.8914 490.669 84.9574C490.109 86.0253 489.422 87.0362 488.607 87.9913C487.792 88.9464 486.873 89.7913 485.851 90.5234C484.827 91.2561 483.757 91.7816 482.639 92.0991C481.519 92.4506 480.592 92.49 479.857 92.2191C479.122 91.9488 478.539 91.487 478.107 90.8343C477.676 90.181 477.365 89.3931 477.172 88.4689C476.981 87.5459 476.868 86.5907 476.837 85.6029C478.659 85.7307 480.281 85.4047 481.703 84.6235C483.125 83.8435 484.332 82.8077 485.324 81.5181C486.314 80.229 487.065 78.7799 487.576 77.1715C488.087 75.563 488.375 73.963 488.44 72.3703C488.471 70.8734 488.247 69.6073 487.768 68.5722C487.289 67.5377 486.642 66.7328 485.827 66.1601C485.011 65.5862 484.077 65.2522 483.021 65.1565C481.967 65.0607 480.896 65.205 479.809 65.5862C478.498 66.0328 477.388 66.7571 476.478 67.7601C475.567 68.7637 474.807 69.9267 474.2 71.2473C473.592 72.5697 473.113 73.9939 472.761 75.523C472.409 77.0515 472.154 78.5569 471.995 80.0375C471.839 81.4744 471.755 82.8496 471.736 84.1659C471.615 84.4283 471.486 84.692 471.347 84.9574C470.787 86.0253 470.1 87.0362 469.285 87.9913C468.471 88.9464 467.551 89.7913 466.529 90.5234C465.506 91.2561 464.435 91.7816 463.317 92.0991C462.197 92.4506 461.271 92.49 460.536 92.2191C459.8 91.9488 459.217 91.487 458.786 90.8343C458.355 90.181 458.043 89.3931 457.851 88.4689C457.659 87.5459 457.547 86.5907 457.515 85.6029C459.337 85.7307 460.959 85.4047 462.382 84.6235C463.803 83.8435 465.01 82.8077 466.001 81.5181C466.992 80.229 467.743 78.7799 468.254 77.1715C468.765 75.563 469.054 73.963 469.117 72.3703C469.149 70.8734 468.926 69.6073 468.447 68.5722C467.967 67.5377 467.319 66.7328 466.504 66.1601C465.689 65.5862 464.755 65.2522 463.7 65.1565C462.645 65.0607 461.574 65.205 460.488 65.5862C459.176 66.0328 458.066 66.7571 457.156 67.7601C456.245 68.7637 455.485 69.9267 454.878 71.2473C454.271 72.5697 453.792 73.9939 453.44 75.523C453.088 77.0515 452.832 78.5569 452.673 80.0375C452.582 80.8726 452.522 81.6823 452.477 82.4774C452.168 82.7393 451.867 83.0029 451.546 83.2617C450.444 84.1538 449.284 84.9574 448.07 85.6744C446.855 86.3913 445.592 86.9804 444.283 87.4422C442.971 87.904 441.629 88.1828 440.255 88.278L443.228 56.5578C443.42 55.8887 443.324 55.3003 442.94 54.7906C442.557 54.2809 442.061 53.9306 441.454 53.7397C440.847 53.5482 440.199 53.5645 439.512 53.787C438.824 54.0106 438.258 54.5203 437.81 55.3154C437.586 56.5263 437.354 58.182 437.115 60.2838C436.875 62.3856 436.635 64.6789 436.396 67.1631C436.156 69.6473 435.916 72.2109 435.677 74.8539C435.437 77.4981 435.229 79.966 435.053 82.2587C435.045 82.3605 435.039 82.4526 435.031 82.5532C434.751 82.7896 434.48 83.0277 434.19 83.2617C433.088 84.1538 431.928 84.9574 430.714 85.6744C429.499 86.3913 428.237 86.9804 426.927 87.4422C425.616 87.904 424.273 88.1828 422.899 88.278L425.872 56.5578C426.064 55.8887 425.968 55.3003 425.585 54.7906C425.201 54.2809 424.705 53.9306 424.098 53.7397C423.491 53.5482 422.843 53.5645 422.156 53.787C421.469 54.0106 420.902 54.5203 420.454 55.3154C420.23 56.5263 419.999 58.182 419.76 60.2838C419.519 62.3856 419.28 64.6789 419.04 67.1631C418.8 69.6473 418.561 72.2109 418.321 74.8539C418.082 77.4981 417.873 79.966 417.698 82.2587C417.694 82.3047 417.691 82.3465 417.687 82.3926C417.185 82.6247 416.638 82.8284 416.043 82.9993C415.436 83.175 414.749 83.2786 413.982 83.3102C414.11 82.7362 414.213 82.0993 414.293 81.3987C414.373 80.6987 414.438 79.966 414.486 79.2011C414.534 78.4375 414.549 77.6727 414.534 76.9084C414.517 76.1436 414.477 75.4436 414.414 74.806C414.253 73.4376 413.958 72.1394 413.527 70.9128C413.095 69.6873 412.512 68.6607 411.777 67.8316C411.041 67.0037 410.123 66.4462 409.019 66.1601C407.917 65.8734 406.63 65.9686 405.161 66.4462C402.986 66.1601 401.029 66.3595 399.287 67.0437C397.545 67.7292 396.034 68.7237 394.756 70.0291C393.478 71.3358 392.431 72.8715 391.616 74.6394C390.801 76.4066 390.257 78.2224 389.986 80.0848C389.871 80.8744 389.815 81.6605 389.798 82.4447C389.303 83.4544 388.761 84.3368 388.164 85.0774C387.317 86.1283 386.438 86.9883 385.527 87.6568C384.616 88.3258 383.713 88.8355 382.819 89.1858C381.923 89.5367 381.124 89.7755 380.421 89.9022C379.59 90.0616 378.791 90.0779 378.024 89.9501C377.257 89.8234 376.553 89.4567 375.915 88.8513C375.403 88.4058 375.011 87.6889 374.74 86.7016C374.468 85.7144 374.309 84.5926 374.261 83.3338C374.213 82.0756 374.261 80.7617 374.404 79.3926C374.548 78.0236 374.795 76.7254 375.147 75.4994C375.499 74.2733 375.945 73.1746 376.49 72.2024C377.032 71.2322 377.672 70.5388 378.408 70.1249C378.822 70.1891 379.079 70.4352 379.175 70.8649C379.271 71.2952 379.294 71.8049 379.246 72.394C379.199 72.9836 379.127 73.5885 379.031 74.2091C378.935 74.8303 378.887 75.3485 378.887 75.7618C379.047 76.6218 379.358 77.2909 379.822 77.7684C380.285 78.246 380.805 78.5254 381.38 78.6042C381.955 78.6842 382.522 78.549 383.083 78.1981C383.641 77.8484 384.096 77.2909 384.449 76.526C384.48 76.5581 384.528 76.5739 384.592 76.5739L385.264 70.5073C385.455 69.6788 385.327 68.9467 384.88 68.3098C384.432 67.6728 383.841 67.3062 383.106 67.211C382.179 65.8734 380.924 65.165 379.342 65.085C377.76 65.0056 376.138 65.5231 374.476 66.6377C373.453 67.371 372.55 68.3813 371.767 69.671C370.983 70.9613 370.345 72.394 369.85 73.9703C369.353 75.5466 369.002 77.2115 368.795 78.963C368.587 80.7144 368.547 82.4187 368.674 84.0738C368.802 85.7307 369.098 87.2913 369.562 88.7555C370.025 90.221 370.672 91.447 371.504 92.4337C372.207 93.2937 373.005 93.9233 373.9 94.3215C374.795 94.7197 375.73 94.9658 376.705 95.0615C377.68 95.1567 378.647 95.1167 379.606 94.9421C380.565 94.7676 381.476 94.5209 382.339 94.2015C383.457 93.7882 384.609 93.2621 385.791 92.6252C386.973 91.9888 388.108 91.224 389.195 90.3319C389.767 89.8628 390.317 89.3513 390.849 88.8028C391.091 89.4016 391.362 89.981 391.688 90.5234C392.551 91.9561 393.717 93.1191 395.188 94.0106C396.657 94.9021 398.464 95.3312 400.605 95.3003C402.907 95.2682 405.032 94.6876 406.982 93.5567C408.932 92.427 410.53 90.7616 411.777 88.5646C413.644 88.5646 415.481 88.258 417.287 87.6489C417.272 87.8416 417.256 88.0446 417.242 88.2307C417.115 89.9186 417.05 91.0646 417.05 91.67C417.019 92.7209 416.947 94.0185 416.835 95.5627C416.723 97.1075 416.651 98.7318 416.619 100.435C416.588 102.139 416.651 103.859 416.811 105.595C416.971 107.33 417.306 108.907 417.818 110.325C418.328 111.741 419.055 112.944 419.999 113.932C420.941 114.918 422.18 115.508 423.715 115.699C425.345 115.921 426.751 115.635 427.934 114.839C429.116 114.042 430.075 112.952 430.811 111.567C431.546 110.181 432.064 108.581 432.369 106.766C432.672 104.95 432.76 103.127 432.633 101.295C432.504 99.4639 432.168 97.7366 431.625 96.113C431.082 94.4882 430.33 93.1506 429.372 92.0991C429.948 91.9409 430.634 91.6385 431.434 91.1919C432.232 90.7464 433.055 90.2446 433.903 89.687C434.111 89.5501 434.316 89.4058 434.524 89.2652C434.446 90.3937 434.406 91.1985 434.406 91.67C434.375 92.7209 434.303 94.0185 434.19 95.5627C434.079 97.1075 434.007 98.7318 433.975 100.435C433.943 102.139 434.007 103.859 434.167 105.595C434.326 107.33 434.662 108.907 435.173 110.325C435.684 111.741 436.412 112.944 437.354 113.932C438.297 114.918 439.536 115.508 441.071 115.699C442.7 115.921 444.106 115.635 445.289 114.839C446.472 114.042 447.431 112.952 448.166 111.567C448.901 110.181 449.42 108.581 449.724 106.766C450.028 104.95 450.115 103.127 449.988 101.295C449.86 99.4639 449.524 97.7366 448.982 96.113C448.437 94.4882 447.687 93.1506 446.727 92.0991C447.303 91.9409 447.99 91.6385 448.789 91.1919C449.588 90.7464 450.411 90.2446 451.259 89.687C451.699 89.3974 452.136 89.0986 452.573 88.7913C452.737 90.3488 453.091 91.7149 453.655 92.864C454.343 94.2658 455.277 95.3482 456.46 96.113C457.642 96.8766 459.033 97.299 460.632 97.3784C462.23 97.4572 463.971 97.1633 465.858 96.4942C467.264 95.9851 468.486 95.3482 469.525 94.5839C470.563 93.8191 471.498 92.8876 472.33 91.7894C472.378 91.7258 472.423 91.6567 472.47 91.5925C472.618 92.0385 472.782 92.467 472.977 92.864C473.665 94.2658 474.6 95.3482 475.782 96.113C476.964 96.8766 478.355 97.299 479.953 97.3784C481.551 97.4572 483.293 97.1633 485.179 96.4942C486.586 95.9851 487.808 95.3482 488.847 94.5839C489.885 93.8191 490.82 92.8876 491.652 91.7894C492.483 90.6901 493.241 89.424 493.929 87.9913C494.616 86.558 495.311 84.9186 496.015 83.0708C496.142 82.5617 496.022 82.1078 495.655 81.7096Z" fill="#0D0C23"/>
</svg>
