<?xml version="1.0" encoding="UTF-8"?>
<svg id="Layer_1" xmlns="http://www.w3.org/2000/svg" viewBox="0 0 404.65 98.18">
  <defs>
    <style>
      .cls-1 {
        fill: #003087;
      }

      .cls-2 {
        fill: #009cde;
      }

      .cls-3 {
        fill: #012169;
      }
    </style>
  </defs>
  <g>
    <path class="cls-2" d="M311.63,21.96h-22.25c-1.52,0-2.82,1.11-3.05,2.61l-9,57.05c-.18,1.13.69,2.14,1.83,2.14h11.42c1.06,0,1.97-.77,2.14-1.83l2.55-16.17c.24-1.5,1.53-2.61,3.05-2.61h7.04c14.66,0,23.11-7.09,25.32-21.15.99-6.15.04-10.98-2.84-14.36-3.16-3.72-8.77-5.68-16.22-5.68ZM314.2,42.79c-1.22,7.99-7.32,7.99-13.22,7.99h-3.36l2.35-14.91c.14-.9.92-1.57,1.83-1.57h1.54c4.02,0,7.81,0,9.77,2.29,1.17,1.37,1.52,3.4,1.08,6.2Z"/>
    <path class="cls-1" d="M152.93,21.96h-22.25c-1.52,0-2.82,1.11-3.05,2.61l-9,57.05c-.18,1.13.69,2.14,1.83,2.14h10.62c1.52,0,2.82-1.11,3.05-2.61l2.43-15.39c.24-1.5,1.53-2.61,3.05-2.61h7.04c14.66,0,23.11-7.09,25.32-21.15.99-6.15.04-10.98-2.84-14.36-3.16-3.72-8.77-5.68-16.22-5.68ZM155.5,42.79c-1.22,7.99-7.32,7.99-13.22,7.99h-3.36l2.35-14.91c.14-.9.92-1.57,1.83-1.57h1.54c4.02,0,7.81,0,9.76,2.29,1.17,1.37,1.52,3.4,1.08,6.2Z"/>
    <path class="cls-1" d="M219.44,42.54h-10.65c-.91,0-1.69.66-1.83,1.57l-.47,2.98-.74-1.08c-2.31-3.35-7.45-4.47-12.58-4.47-11.77,0-21.83,8.92-23.78,21.43-1.02,6.24.43,12.21,3.97,16.37,3.25,3.82,7.89,5.42,13.42,5.42,9.49,0,14.75-6.1,14.75-6.1l-.48,2.96c-.18,1.13.69,2.15,1.83,2.15h9.59c1.52,0,2.82-1.11,3.05-2.61l5.76-36.47c.18-1.13-.69-2.14-1.83-2.14ZM204.59,63.27c-1.03,6.09-5.86,10.17-12.03,10.17-3.09,0-5.56-.99-7.15-2.88-1.58-1.87-2.17-4.52-1.67-7.48.96-6.03,5.87-10.25,11.94-10.25,3.03,0,5.48,1,7.1,2.9,1.63,1.91,2.27,4.59,1.81,7.53Z"/>
    <path class="cls-2" d="M378.13,42.54h-10.65c-.91,0-1.69.66-1.83,1.57l-.47,2.98-.74-1.08c-2.31-3.35-7.45-4.47-12.58-4.47-11.77,0-21.83,8.92-23.78,21.43-1.02,6.24.43,12.21,3.97,16.37,3.25,3.82,7.89,5.42,13.42,5.42,9.49,0,14.75-6.1,14.75-6.1l-.48,2.96c-.18,1.13.69,2.15,1.83,2.15h9.59c1.52,0,2.82-1.11,3.05-2.61l5.76-36.47c.18-1.13-.69-2.14-1.83-2.14ZM363.28,63.27c-1.03,6.09-5.86,10.17-12.03,10.17-3.09,0-5.56-.99-7.15-2.88-1.58-1.87-2.17-4.52-1.67-7.48.96-6.03,5.87-10.25,11.94-10.25,3.03,0,5.48,1,7.1,2.9,1.63,1.91,2.27,4.59,1.81,7.53Z"/>
    <path class="cls-1" d="M276.18,42.54h-10.71c-1.02,0-1.98.51-2.56,1.36l-14.77,21.76-6.26-20.91c-.39-1.31-1.6-2.21-2.96-2.21h-10.53c-1.27,0-2.17,1.25-1.76,2.45l11.79,34.61-11.09,15.65c-.87,1.23,0,2.93,1.51,2.93h10.7c1.01,0,1.96-.5,2.54-1.33l35.61-51.4c.85-1.23-.03-2.91-1.52-2.91Z"/>
    <path class="cls-2" d="M390.69,23.52l-9.13,58.1c-.18,1.13.69,2.14,1.83,2.14h9.18c1.52,0,2.82-1.11,3.05-2.61l9-57.05c.18-1.13-.69-2.14-1.83-2.14h-10.28c-.91,0-1.69.66-1.83,1.57Z"/>
  </g>
  <g>
    <path class="cls-2" d="M74.98,24.94c1.2-7.64,0-12.83-4.14-17.54-4.55-5.18-12.76-7.4-23.28-7.4h-30.51c-2.15,0-3.98,1.56-4.31,3.69L.03,84.26c-.25,1.59.98,3.03,2.59,3.03h18.84l-1.3,8.25c-.22,1.39.86,2.65,2.26,2.65h15.88c1.88,0,3.48-1.37,3.77-3.22l.16-.81,2.99-18.97.19-1.05c.29-1.86,1.89-3.22,3.77-3.22h2.38c15.38,0,27.43-6.25,30.95-24.32,1.47-7.55.71-13.86-3.18-18.29-1.18-1.34-2.64-2.45-4.35-3.35h0"/>
    <path class="cls-3" d="M74.98,24.94c1.2-7.64,0-12.83-4.14-17.54-4.55-5.18-12.76-7.4-23.28-7.4h-30.51c-2.15,0-3.98,1.56-4.31,3.69L.03,84.26c-.25,1.59.98,3.03,2.59,3.03h18.84l4.73-30.01-.15.94c.33-2.12,2.15-3.69,4.3-3.69h8.95c17.58,0,31.35-7.14,35.38-27.8.12-.61.22-1.2.31-1.79"/>
    <path class="cls-1" d="M31.27,25.05c.2-1.28,1.02-2.32,2.12-2.85.5-.24,1.06-.37,1.65-.37h23.92c2.83,0,5.48.19,7.89.57.69.11,1.36.24,2.01.38s1.29.31,1.9.49c.31.09.61.18.9.28,1.19.39,2.29.86,3.31,1.4,1.2-7.64,0-12.83-4.14-17.54-4.55-5.18-12.76-7.4-23.28-7.4h-30.51c-2.15,0-3.98,1.56-4.31,3.69L.03,84.26c-.25,1.59.98,3.03,2.59,3.03h18.84l4.73-30.01,5.08-32.23Z"/>
  </g>
</svg>